<svg width="13" height="13" viewBox="0 0 13 13" fill="none" xmlns="http://www.w3.org/2000/svg">
<g id="Frame 106">
<g id="&#244;&#128;&#132;&#166; &#244;&#128;&#132;&#167;">
<path id="Vector" d="M7.70338 8.36877C7.79619 8.36877 7.87045 8.32976 7.9679 8.28157L10.9496 6.85198C11.1469 6.7556 11.2095 6.66611 11.2095 6.54449C11.2095 6.42287 11.1469 6.33568 10.9496 6.2393L7.9679 4.80741C7.86813 4.75922 7.79387 4.72021 7.70106 4.72021C7.52935 4.72021 7.42261 4.84872 7.42261 5.04836L7.42493 8.04063C7.42493 8.24027 7.53167 8.36877 7.70338 8.36877Z" fill="white"/>
<path id="Vector_2" d="M4.98551 4.72021C4.89269 4.72021 4.81844 4.75922 4.72098 4.80741L1.73926 6.2393C1.54202 6.33568 1.47937 6.42287 1.47937 6.54449C1.47937 6.66611 1.54202 6.7556 1.73926 6.85198L4.72098 8.28157C4.82076 8.32976 4.89501 8.36877 4.98783 8.36877C5.15954 8.36877 5.26396 8.24027 5.26396 8.04063V5.04836C5.26396 4.84872 5.15722 4.72021 4.98551 4.72021Z" fill="white"/>
</g>
</g>
</svg>
